<mxfile host="Electron" agent="Mozilla/5.0 (Windows NT 10.0; Win64; x64) AppleWebKit/537.36 (KHTML, like Gecko) draw.io/24.7.17 Chrome/128.0.6613.36 Electron/32.0.1 Safari/537.36" version="24.7.17">
  <diagram name="Page-1" id="CUNp4FfwuPjCnaMchaEN">
    <mxGraphModel dx="1593" dy="938" grid="1" gridSize="10" guides="1" tooltips="1" connect="1" arrows="1" fold="1" page="1" pageScale="1" pageWidth="850" pageHeight="1100" math="0" shadow="0">
      <root>
        <mxCell id="0" />
        <mxCell id="1" parent="0" />
        <mxCell id="1zbAm3caEHlxw9umz4Rc-7" style="edgeStyle=orthogonalEdgeStyle;rounded=0;orthogonalLoop=1;jettySize=auto;html=1;exitX=0.5;exitY=1;exitDx=0;exitDy=0;entryX=0.5;entryY=0;entryDx=0;entryDy=0;" edge="1" parent="1" source="1zbAm3caEHlxw9umz4Rc-1" target="1zbAm3caEHlxw9umz4Rc-2">
          <mxGeometry relative="1" as="geometry" />
        </mxCell>
        <mxCell id="1zbAm3caEHlxw9umz4Rc-1" value="Bắt đầu kết nối đỉnh với nhau" style="rounded=1;whiteSpace=wrap;html=1;" vertex="1" parent="1">
          <mxGeometry x="360" y="60" width="120" height="60" as="geometry" />
        </mxCell>
        <mxCell id="1zbAm3caEHlxw9umz4Rc-8" style="edgeStyle=orthogonalEdgeStyle;rounded=0;orthogonalLoop=1;jettySize=auto;html=1;exitX=0.5;exitY=1;exitDx=0;exitDy=0;entryX=0.5;entryY=0;entryDx=0;entryDy=0;" edge="1" parent="1" source="1zbAm3caEHlxw9umz4Rc-2" target="1zbAm3caEHlxw9umz4Rc-3">
          <mxGeometry relative="1" as="geometry" />
        </mxCell>
        <mxCell id="1zbAm3caEHlxw9umz4Rc-2" value="Vòng lặp từ 0 đến số đỉnh" style="rounded=0;whiteSpace=wrap;html=1;" vertex="1" parent="1">
          <mxGeometry x="360" y="170" width="120" height="60" as="geometry" />
        </mxCell>
        <mxCell id="1zbAm3caEHlxw9umz4Rc-9" style="edgeStyle=orthogonalEdgeStyle;rounded=0;orthogonalLoop=1;jettySize=auto;html=1;exitX=0.5;exitY=1;exitDx=0;exitDy=0;entryX=0.5;entryY=0;entryDx=0;entryDy=0;" edge="1" parent="1" source="1zbAm3caEHlxw9umz4Rc-3" target="1zbAm3caEHlxw9umz4Rc-4">
          <mxGeometry relative="1" as="geometry" />
        </mxCell>
        <mxCell id="1zbAm3caEHlxw9umz4Rc-3" value="Khởi tạo biến A là đỉnh hiện tại.&lt;br&gt;biến B là đỉnh tiếp theo" style="rounded=0;whiteSpace=wrap;html=1;" vertex="1" parent="1">
          <mxGeometry x="330" y="280" width="180" height="90" as="geometry" />
        </mxCell>
        <mxCell id="1zbAm3caEHlxw9umz4Rc-10" style="edgeStyle=orthogonalEdgeStyle;rounded=0;orthogonalLoop=1;jettySize=auto;html=1;exitX=0.5;exitY=1;exitDx=0;exitDy=0;entryX=0.5;entryY=0;entryDx=0;entryDy=0;" edge="1" parent="1" source="1zbAm3caEHlxw9umz4Rc-4" target="1zbAm3caEHlxw9umz4Rc-5">
          <mxGeometry relative="1" as="geometry" />
        </mxCell>
        <mxCell id="1zbAm3caEHlxw9umz4Rc-12" style="edgeStyle=orthogonalEdgeStyle;rounded=0;orthogonalLoop=1;jettySize=auto;html=1;exitX=0;exitY=0.5;exitDx=0;exitDy=0;entryX=0;entryY=0.5;entryDx=0;entryDy=0;" edge="1" parent="1" source="1zbAm3caEHlxw9umz4Rc-4" target="1zbAm3caEHlxw9umz4Rc-3">
          <mxGeometry relative="1" as="geometry">
            <Array as="points">
              <mxPoint x="270" y="495" />
              <mxPoint x="270" y="325" />
            </Array>
          </mxGeometry>
        </mxCell>
        <mxCell id="1zbAm3caEHlxw9umz4Rc-4" value="Nếu giữa A và B&amp;nbsp;&lt;div&gt;chưa có cạnh&lt;/div&gt;" style="rhombus;whiteSpace=wrap;html=1;" vertex="1" parent="1">
          <mxGeometry x="345" y="420" width="150" height="150" as="geometry" />
        </mxCell>
        <mxCell id="1zbAm3caEHlxw9umz4Rc-11" style="edgeStyle=orthogonalEdgeStyle;rounded=0;orthogonalLoop=1;jettySize=auto;html=1;exitX=0.5;exitY=1;exitDx=0;exitDy=0;entryX=0.5;entryY=0;entryDx=0;entryDy=0;" edge="1" parent="1" source="1zbAm3caEHlxw9umz4Rc-5" target="1zbAm3caEHlxw9umz4Rc-6">
          <mxGeometry relative="1" as="geometry" />
        </mxCell>
        <mxCell id="1zbAm3caEHlxw9umz4Rc-5" value="Thêm cặp A,B vào mảng cacCanh" style="rounded=0;whiteSpace=wrap;html=1;" vertex="1" parent="1">
          <mxGeometry x="360" y="620" width="120" height="60" as="geometry" />
        </mxCell>
        <mxCell id="1zbAm3caEHlxw9umz4Rc-6" value="Kết thúc" style="rounded=1;whiteSpace=wrap;html=1;" vertex="1" parent="1">
          <mxGeometry x="360" y="730" width="120" height="60" as="geometry" />
        </mxCell>
        <mxCell id="1zbAm3caEHlxw9umz4Rc-13" value="Đúng" style="text;html=1;align=center;verticalAlign=middle;resizable=0;points=[];autosize=1;strokeColor=none;fillColor=none;" vertex="1" parent="1">
          <mxGeometry x="370" y="569" width="50" height="30" as="geometry" />
        </mxCell>
        <mxCell id="1zbAm3caEHlxw9umz4Rc-14" value="Sai" style="text;html=1;align=center;verticalAlign=middle;resizable=0;points=[];autosize=1;strokeColor=none;fillColor=none;" vertex="1" parent="1">
          <mxGeometry x="305" y="464" width="40" height="30" as="geometry" />
        </mxCell>
      </root>
    </mxGraphModel>
  </diagram>
</mxfile>
